HIERARCHY
ROOT hip
{
	OFFSET 0.000000 0.000000 0.000000 
	CHANNELS 6 Xposition Yposition Zposition Xrotation Zrotation Yrotation
	JOINT abdomen
	{
		OFFSET 0.000000 3.402643 0.000000 
		CHANNELS 3 Xrotation Zrotation Yrotation
		JOINT chest
		{
			OFFSET 0.000000 8.438565 -0.680529 
			CHANNELS 3 Xrotation Zrotation Yrotation
			JOINT neck
			{
				OFFSET 0.000000 10.207942 -0.272212 
				CHANNELS 3 Xrotation Zrotation Yrotation
				JOINT head
				{
					OFFSET 0.000000 3.130431 0.000000 
					CHANNELS 3 Xrotation Zrotation Yrotation
					End Site
					{
						OFFSET 0.000000 3.130435 0.000000 
					}
				}
			}
			JOINT lCollar
			{
				OFFSET 3.470700 6.669187 -0.816635 
				CHANNELS 3 Yrotation Zrotation Xrotation
				JOINT lShldr
				{
					OFFSET 3.198488 0.000000 0.000000 
					CHANNELS 3 Zrotation Yrotation Xrotation
					JOINT lForeArm
					{
						OFFSET 10.139888 0.000000 0.000000 
						CHANNELS 3 Yrotation Zrotation Xrotation
						JOINT lHand
						{
							OFFSET 8.370511 0.000000 0.000000 
							CHANNELS 3 Zrotation Yrotation Xrotation
							End Site
							{
								OFFSET 4.083176 0.000000 0.000000 
							}
						}
					}
				}
			}
			JOINT rCollar
			{
				OFFSET -3.470700 6.669187 -0.816635 
				CHANNELS 3 Yrotation Zrotation Xrotation
				JOINT rShldr
				{
					OFFSET -3.198488 0.000000 0.000000 
					CHANNELS 3 Zrotation Yrotation Xrotation
					JOINT rForeArm
					{
						OFFSET -10.139888 0.000000 0.000000 
						CHANNELS 3 Yrotation Zrotation Xrotation
						JOINT rHand
						{
							OFFSET -8.370511 0.000000 0.000000 
							CHANNELS 3 Zrotation Yrotation Xrotation
							End Site
							{
								OFFSET -4.083176 0.000000 0.000000 
							}
						}
					}
				}
			}
		}
	}
	JOINT lThigh
	{
		OFFSET 5.308129 -1.633274 1.361059 
		CHANNELS 3 Xrotation Zrotation Yrotation
		JOINT lShin
		{
			OFFSET -2.041588 -20.007561 0.000000 
			CHANNELS 3 Xrotation Zrotation Yrotation
			JOINT lFoot
			{
				OFFSET 0.000000 -19.190928 -1.224953 
				CHANNELS 3 Xrotation Yrotation Zrotation
				End Site
				{
					OFFSET 0.000000 -2.449906 4.627600 
				}
			}
		}
	}
	JOINT rThigh
	{
		OFFSET -5.308129 -1.633274 1.361059 
		CHANNELS 3 Xrotation Zrotation Yrotation
		JOINT rShin
		{
			OFFSET 2.041588 -20.007561 0.000000 
			CHANNELS 3 Xrotation Zrotation Yrotation
			JOINT rFoot
			{
				OFFSET 0.000000 -19.190928 -1.224953 
				CHANNELS 3 Xrotation Yrotation Zrotation
				End Site
				{
					OFFSET 0.000000 -2.449906 4.627600 
				}
			}
		}
	}
}
MOTION
Frames: 18
Frame Time: 0.033333
-0.298451 39.461361 -0.298451 0.000000 0.000000 1.152344 27.713062 5.273291 -15.634438 -4.970521 0.272818 7.556726 -39.323925 21.960546 -23.510471 10.524219 0.508720 -0.030344 -10.622061 29.293808 -25.000000 -95.424011 -21.689255 29.219683 -78.927277 -3.130781 1.270515 27.996508 -17.361441 -46.260006 -4.156646 25.000000 -25.000000 43.165249 -26.118967 13.998278 53.194595 2.774098 1.889493 58.942524 36.700100 95.158401 -40.789162 8.134598 6.350434 54.517483 0.476105 -4.316049 -13.095293 7.651399 -1.450775 -16.552208 -18.316677 -31.361431 72.767426 -1.767221 4.629180 -37.298973 -2.648367 4.530987 
-0.648243 40.688416 -0.648243 0.000000 0.000000 -1.367188 26.062847 6.674104 -16.212011 -6.054606 0.189128 7.509968 -52.931816 20.962009 -31.387632 10.524219 0.508720 -0.030344 -9.679329 30.000000 -25.000000 -111.207436 -23.746866 37.696251 -80.760704 -3.145519 1.217512 25.343679 -34.644569 -36.005760 -5.624283 25.000000 -25.000000 13.580551 -44.761440 30.834278 48.067951 2.672851 1.989725 50.754559 32.485298 86.801994 -38.192543 8.330156 5.785316 50.335625 0.207043 -4.197249 -11.373597 7.915555 -2.321997 -14.198964 -17.730637 -33.290764 67.856636 -1.425473 4.575129 -34.543129 -1.086218 4.383407 
-1.597684 39.411385 -1.597684 0.000000 0.000000 -3.896484 17.980852 11.840096 -19.767210 -9.540824 -0.335420 7.551730 -35.442204 16.711266 -20.158762 10.524219 0.508720 -0.030344 -10.557559 21.421171 -5.904795 -120.842804 -35.426262 59.224434 -82.440063 -3.151931 1.171038 18.144423 -49.673355 -22.843794 -5.111609 13.686179 -7.547323 7.933344 -58.275482 30.896084 43.711052 2.573707 2.070716 44.925274 28.386417 80.813377 -41.304825 11.590480 4.015191 53.543221 0.415941 -4.275599 -11.044358 7.030085 -5.595357 -18.778318 -17.718321 -35.350632 73.528320 -1.806611 4.626320 -36.326576 0.097590 0.520196 
-1.314517 36.824017 -1.314517 0.000000 0.000000 -9.345703 4.595834 18.609898 -26.521616 -14.725446 -1.117140 7.600220 -0.231895 -1.126297 -6.347902 10.524219 0.508720 -0.030344 -6.039901 -5.267150 25.000000 -125.547783 -52.151302 88.303131 -83.761078 -3.166281 1.137496 5.706028 -60.091232 -6.105020 4.150938 -9.651567 25.000000 44.191551 -60.019905 1.482950 40.786777 2.512089 2.118378 41.890400 25.794785 77.680557 -47.278740 15.798614 1.551120 60.704884 0.903906 -4.476445 -12.086493 5.240789 -9.448732 -25.253666 -16.200632 -34.920845 82.795593 -2.499414 4.624387 -40.862320 -2.187309 -3.994084 
-0.559408 33.287235 -0.559408 0.000000 0.000000 -14.960937 -2.078182 21.937807 -29.026901 -17.333076 -1.355189 7.100754 18.489861 -14.430573 -6.256512 10.524219 0.508720 -0.030344 0.685461 -19.273880 25.000000 46.963505 -117.314896 -70.221512 -84.478462 -3.161541 1.122818 -5.589495 -64.505112 7.432206 12.562228 -18.939926 25.000000 63.611431 -49.164860 -12.813822 40.031696 2.493843 2.130041 41.482258 25.417023 77.264290 -54.445076 20.221668 -1.408979 70.330872 1.585272 -4.633967 -14.965158 2.542566 -13.141700 -33.777794 -15.017322 -33.744297 92.760963 -3.203030 4.521825 -44.716431 -5.694936 -8.483748 
0.528837 29.700520 0.528837 -0.009766 0.000000 -19.326170 -2.285369 23.101055 -27.424887 -17.704489 -1.160591 6.338095 22.640224 -17.545053 -6.820556 10.524219 0.508720 -0.030344 3.057651 -22.117151 25.000000 40.300877 -115.405891 -58.959217 -84.693893 -3.170417 1.118703 -9.728522 -65.537910 12.199547 14.882880 -20.247511 25.000000 69.506271 -45.291859 -17.924280 39.699368 2.488166 2.131752 41.494778 25.424877 77.273781 -61.473576 23.144444 -4.183431 79.910568 2.267379 -4.658386 -18.336777 0.159341 -15.308059 -30.789499 -18.767084 -27.544708 106.486404 -4.140045 4.149573 -59.924187 -7.133852 -0.748390 
1.361679 27.107567 1.361679 -0.009766 0.000000 -21.015625 -1.330086 24.618288 -23.974445 -17.822044 -0.721762 5.062827 29.066341 -20.707453 -8.235206 10.524219 0.508720 -0.030344 6.011827 -25.000000 25.000000 29.727196 -114.617065 -41.355663 -85.129967 -3.167481 1.106964 -17.482840 -66.881851 20.972525 17.401371 -21.590847 25.000000 76.976936 -39.387951 -24.696735 38.894455 2.470085 2.141053 41.606285 25.545753 77.384895 -66.727760 23.593801 -5.599883 87.377953 2.782778 -4.626795 -21.055012 -0.754126 -15.354216 -26.989172 -22.914150 -22.137440 117.495689 -4.784890 3.701963 -73.646996 -8.218312 7.014927 
1.428302 24.864414 1.428302 -0.009766 0.000000 -20.761719 0.904069 25.780405 -19.453165 -17.558584 -0.136470 3.654903 34.489479 -22.515385 -9.647414 10.524219 0.508720 -0.030344 8.306851 -25.000000 25.000000 21.414610 -114.895134 -26.642258 -85.491600 -3.170820 1.095017 -22.565916 -67.417130 26.579332 19.017460 -22.259693 25.000000 83.153061 -33.217407 -30.591635 38.011047 2.448752 2.159425 41.902985 25.802616 77.685860 -71.574684 23.308716 -6.516529 94.585114 3.309121 -4.513521 -23.749252 -1.139396 -14.732352 -26.169132 -24.779631 -20.081533 121.831108 -5.019173 3.499596 -80.020874 -8.897731 9.625630 
1.350574 22.732407 1.350574 -0.009766 0.000000 -20.263672 4.113028 26.455050 -14.148199 -17.031099 0.526394 2.171382 38.816753 -23.297535 -10.735404 10.524219 0.508720 -0.030344 9.918014 -25.000000 25.000000 15.259899 -115.455589 -14.910021 -85.748360 -3.170186 1.085046 -24.472994 -67.486839 28.562222 19.900055 -22.450296 25.000000 88.111214 -26.856909 -35.623318 37.157516 2.425800 2.173544 42.346447 26.201616 78.148605 -75.474617 22.557823 -6.940572 100.587563 3.718948 -4.362562 -25.987371 -1.069531 -13.821611 -26.051315 -25.813354 -19.249166 123.407051 -5.097644 3.431964 -83.635101 -9.325737 10.577955 
1.289499 21.316467 1.289499 -0.009766 0.000000 -19.550781 7.922313 26.541550 -8.408951 -16.375986 1.227224 0.666490 41.980045 -23.378908 -11.381481 10.524219 0.508720 -0.030344 10.917831 -25.000000 25.000000 10.560456 -115.894745 -5.529910 -85.896706 -3.171946 1.078025 -23.749596 -67.329071 27.565355 20.144676 -22.318638 25.000000 91.843201 -20.375471 -39.876087 36.345001 2.408250 2.185241 42.937744 26.732567 78.762070 -77.849426 21.601217 -6.931444 104.386139 3.972173 -4.246895 -27.375504 -0.570730 -12.894679 -25.965595 -26.657560 -18.600613 123.613190 -5.107582 3.408188 -85.822876 -9.796464 11.309509 
1.289499 21.521992 1.289499 -0.009766 0.000000 -18.632813 11.944296 26.037327 -2.607842 -15.700471 1.887739 -0.825083 43.959332 -23.093779 -11.515143 10.524219 0.508720 -0.030344 11.470695 -25.000000 25.000000 6.699432 -116.034508 2.086918 -85.930252 -3.177820 1.084337 -21.246775 -66.979721 24.588991 19.917406 -21.951452 25.000000 94.322021 -13.869728 -43.356289 35.572060 2.389730 2.191180 43.689507 27.362473 79.530922 -77.731789 20.194925 -6.277471 104.376007 3.972152 -4.256336 -27.192335 0.655519 -12.006392 -25.906782 -27.301735 -17.920300 121.684219 -5.017597 3.505964 -85.704704 -10.399442 11.954975 
1.311707 22.843416 1.311707 -0.009766 0.000000 -17.558592 15.798935 25.049400 2.885442 -15.141539 2.440226 -2.248167 44.800541 -22.717484 -11.189779 10.524219 0.508720 -0.030344 11.741667 -25.000000 25.000000 3.466294 -115.782745 8.187318 -85.848381 -3.171409 1.083573 -17.755508 -66.444244 20.498859 19.382803 -21.455225 25.000000 95.595802 -7.492869 -46.104656 34.849854 2.369127 2.199327 44.570263 28.095100 80.445213 -75.341980 18.289547 -4.991558 101.037239 3.737714 -4.345262 -25.778191 2.534229 -10.902380 -25.486771 -27.584549 -17.681824 117.407959 -4.775177 3.699770 -83.113136 -10.853007 12.418267 
1.356126 24.636862 1.356126 -0.009766 0.000000 -16.328125 19.159792 23.762959 7.775853 -14.797820 2.788574 -3.555664 44.945698 -22.420589 -10.648342 10.524219 0.508720 -0.030344 11.914884 -25.000000 25.000000 1.019857 -115.098373 12.696304 -85.648178 -3.168024 1.086417 -14.115604 -65.781136 16.270426 18.704313 -20.988214 25.000000 95.799988 -1.493713 -48.105362 34.168804 2.356524 2.207040 45.591373 28.906637 81.489365 -72.065300 16.395700 -3.583206 96.624649 3.455247 -4.459540 -24.278849 4.425745 -9.739866 -24.196774 -27.728775 -17.840965 111.724831 -4.452805 3.962594 -78.813210 -11.008289 13.104212 
1.450518 26.857697 1.450518 0.000000 0.000000 -14.970702 21.167437 22.776228 10.857039 -14.758221 2.885535 -4.442309 45.202785 -22.296652 -10.348534 10.524219 0.508720 -0.030344 12.065246 -25.000000 25.000000 -0.679490 -113.513275 15.202025 -85.318436 -3.166983 1.104901 -10.950291 -65.105629 12.625206 17.958590 -20.760818 25.000000 94.588753 3.776041 -48.903744 33.548176 2.342494 2.215463 46.736404 29.776545 82.672867 -68.015068 14.657941 -2.140402 91.600540 3.095290 -4.558660 -23.020617 6.039068 -8.517734 -22.148293 -27.606503 -18.334709 104.777718 -4.013135 4.197876 -73.509857 -11.049034 13.879593 
1.633743 29.245121 1.633743 0.000000 0.000000 -13.515624 22.738356 21.837301 13.372411 -14.866069 2.827777 -5.205497 45.281063 -22.213730 -10.064030 10.524219 0.508720 -0.030344 12.123521 -25.000000 25.000000 -1.296679 -112.029541 16.262640 -84.859589 -3.171341 1.109444 -8.815389 -64.600700 10.240059 17.102713 -20.581572 25.000000 92.738564 8.691636 -49.351883 32.978443 2.320084 2.232471 48.037907 30.690710 84.006561 -63.092152 12.831639 -0.648339 85.515335 2.666547 -4.637619 -21.687582 7.568145 -7.140242 -19.167484 -27.149742 -19.118755 96.918251 -3.495774 4.410707 -68.249901 -11.181520 14.603080 
1.905801 31.743696 1.905801 0.000000 0.000000 -11.982422 25.274740 19.960909 17.541218 -15.229154 2.528087 -6.530829 43.588284 -21.924330 -8.848265 10.524219 0.508720 -0.030344 11.914036 -25.000000 25.000000 2.604460 -112.324699 13.902617 -84.478462 -3.161541 1.122818 -8.170040 -64.472412 9.637076 16.089025 -20.007933 25.000000 91.337570 12.791223 -50.474503 32.467709 2.306924 2.236339 49.442421 31.642159 85.449234 -58.160927 11.015047 0.636050 79.335304 2.228374 -4.663181 -20.381481 8.895162 -5.728830 -15.633608 -26.476887 -20.100693 88.411140 -2.899903 4.580686 -62.790897 -11.309428 15.332803 
2.349984 34.220005 2.349984 0.000000 0.000000 -10.400392 27.734623 17.654245 21.745029 -15.758676 2.033870 -7.943607 40.695225 -21.352739 -7.173075 10.524219 0.508720 -0.030344 11.377930 -24.192001 25.000000 9.631960 -113.131950 7.342735 -83.344734 -3.159241 1.145662 -7.652850 -64.489296 9.408793 14.864558 -19.109270 25.000000 89.496162 15.936396 -51.626438 32.007854 2.303603 2.239542 50.973358 32.604126 87.017372 -53.251884 9.218940 1.686998 73.040588 1.747981 -4.661602 -19.066736 10.023771 -4.313161 -11.328238 -25.553839 -21.458063 79.081390 -2.240443 4.645727 -57.202042 -11.280640 16.076958 
2.810824 36.346523 2.810824 0.000000 0.000000 -8.789063 29.977266 15.045895 25.716169 -16.365940 1.392776 -9.340623 36.987385 -20.478653 -5.266833 10.524219 0.508720 -0.030344 10.601027 -23.115210 25.000000 18.496944 -114.818733 -3.357871 -80.473457 -3.145071 1.230946 -6.182226 -64.537331 8.744534 13.491994 -17.857872 25.000000 87.183823 18.335981 -52.756729 31.618223 2.291850 2.247771 52.615040 33.571095 88.691742 -48.320038 7.451313 2.556180 66.667351 1.309159 -4.606413 -17.755405 10.978711 -2.902034 -6.533657 -24.284367 -22.858595 69.931778 -1.586437 4.590010 -52.431751 -11.349804 16.746092 
